<mxfile host="app.diagrams.net" agent="Mozilla/5.0 (Windows NT 10.0; Win64; x64) AppleWebKit/537.36 (KHTML, like Gecko) Chrome/131.0.0.0 Safari/537.36 OPR/116.0.0.0" version="26.0.16">
  <diagram name="Page-1" id="HpSrpv2R5mOBpIn3r4wW">
    <mxGraphModel dx="1513" dy="1430" grid="1" gridSize="10" guides="1" tooltips="1" connect="1" arrows="1" fold="1" page="1" pageScale="1" pageWidth="827" pageHeight="1169" math="0" shadow="0">
      <root>
        <mxCell id="0" />
        <mxCell id="1" parent="0" />
        <mxCell id="70hL_4xym6O7oSysJ1IL-23" value="" style="group" vertex="1" connectable="0" parent="1">
          <mxGeometry width="1080" height="600" as="geometry" />
        </mxCell>
        <mxCell id="70hL_4xym6O7oSysJ1IL-4" value="" style="rounded=0;whiteSpace=wrap;html=1;" vertex="1" parent="70hL_4xym6O7oSysJ1IL-23">
          <mxGeometry width="1080" height="600" as="geometry" />
        </mxCell>
        <mxCell id="70hL_4xym6O7oSysJ1IL-5" value="" style="rounded=0;whiteSpace=wrap;html=1;" vertex="1" parent="70hL_4xym6O7oSysJ1IL-23">
          <mxGeometry width="1080" height="50" as="geometry" />
        </mxCell>
        <mxCell id="70hL_4xym6O7oSysJ1IL-6" value="Home" style="text;html=1;align=center;verticalAlign=middle;whiteSpace=wrap;rounded=0;" vertex="1" parent="70hL_4xym6O7oSysJ1IL-23">
          <mxGeometry x="10" y="10" width="60" height="30" as="geometry" />
        </mxCell>
        <mxCell id="70hL_4xym6O7oSysJ1IL-8" value="About Us" style="text;html=1;align=center;verticalAlign=middle;whiteSpace=wrap;rounded=0;" vertex="1" parent="70hL_4xym6O7oSysJ1IL-23">
          <mxGeometry x="130" y="10" width="60" height="30" as="geometry" />
        </mxCell>
        <mxCell id="70hL_4xym6O7oSysJ1IL-9" value="Buy Products" style="text;html=1;align=center;verticalAlign=middle;whiteSpace=wrap;rounded=0;" vertex="1" parent="70hL_4xym6O7oSysJ1IL-23">
          <mxGeometry x="250" y="10" width="80" height="30" as="geometry" />
        </mxCell>
        <mxCell id="70hL_4xym6O7oSysJ1IL-10" value="Sell Products" style="text;html=1;align=center;verticalAlign=middle;whiteSpace=wrap;rounded=0;" vertex="1" parent="70hL_4xym6O7oSysJ1IL-23">
          <mxGeometry x="370" y="10" width="80" height="30" as="geometry" />
        </mxCell>
        <mxCell id="70hL_4xym6O7oSysJ1IL-11" value="History Items" style="text;html=1;align=center;verticalAlign=middle;whiteSpace=wrap;rounded=0;" vertex="1" parent="70hL_4xym6O7oSysJ1IL-23">
          <mxGeometry x="490" y="10" width="75.5" height="30" as="geometry" />
        </mxCell>
        <mxCell id="70hL_4xym6O7oSysJ1IL-12" value="Login" style="text;html=1;align=center;verticalAlign=middle;whiteSpace=wrap;rounded=0;" vertex="1" parent="70hL_4xym6O7oSysJ1IL-23">
          <mxGeometry x="610" y="10" width="60" height="30" as="geometry" />
        </mxCell>
        <mxCell id="70hL_4xym6O7oSysJ1IL-13" value="Register" style="text;html=1;align=center;verticalAlign=middle;whiteSpace=wrap;rounded=0;" vertex="1" parent="70hL_4xym6O7oSysJ1IL-23">
          <mxGeometry x="730" y="10" width="60" height="30" as="geometry" />
        </mxCell>
        <mxCell id="70hL_4xym6O7oSysJ1IL-15" value="Search.." style="strokeWidth=1;shadow=0;dashed=0;align=center;html=1;shape=mxgraph.mockup.text.textBox;fontColor=#CCCCCC;align=left;fontSize=15;spacingLeft=4;spacingTop=-3;whiteSpace=wrap;strokeColor=#666666;mainText=" vertex="1" parent="70hL_4xym6O7oSysJ1IL-23">
          <mxGeometry x="910" y="10" width="150" height="30" as="geometry" />
        </mxCell>
        <mxCell id="70hL_4xym6O7oSysJ1IL-16" value="&lt;b&gt;&lt;font style=&quot;font-size: 16px;&quot;&gt;Login&lt;/font&gt;&lt;/b&gt;" style="text;html=1;align=center;verticalAlign=middle;whiteSpace=wrap;rounded=0;" vertex="1" parent="70hL_4xym6O7oSysJ1IL-23">
          <mxGeometry x="450" y="70" width="60" height="30" as="geometry" />
        </mxCell>
        <mxCell id="70hL_4xym6O7oSysJ1IL-17" value="" style="rounded=1;whiteSpace=wrap;html=1;" vertex="1" parent="70hL_4xym6O7oSysJ1IL-23">
          <mxGeometry x="350" y="100" width="270" height="190" as="geometry" />
        </mxCell>
        <mxCell id="70hL_4xym6O7oSysJ1IL-18" value="&amp;nbsp;&lt;font style=&quot;color: rgb(179, 179, 179);&quot;&gt;Email&lt;/font&gt;" style="rounded=0;whiteSpace=wrap;html=1;align=left;" vertex="1" parent="70hL_4xym6O7oSysJ1IL-23">
          <mxGeometry x="370" y="130" width="220" height="20" as="geometry" />
        </mxCell>
        <mxCell id="70hL_4xym6O7oSysJ1IL-19" value="&amp;nbsp;Password" style="rounded=0;whiteSpace=wrap;html=1;align=left;fontColor=#CCCCCC;" vertex="1" parent="70hL_4xym6O7oSysJ1IL-23">
          <mxGeometry x="370" y="180" width="220" height="20" as="geometry" />
        </mxCell>
        <mxCell id="70hL_4xym6O7oSysJ1IL-20" value="&lt;font style=&quot;color: rgb(255, 255, 255);&quot;&gt;Submit&lt;/font&gt;" style="rounded=1;whiteSpace=wrap;html=1;labelBackgroundColor=#00CC00;fillColor=#00CC00;glass=0;shadow=0;" vertex="1" parent="70hL_4xym6O7oSysJ1IL-23">
          <mxGeometry x="370" y="230" width="220" height="20" as="geometry" />
        </mxCell>
        <mxCell id="70hL_4xym6O7oSysJ1IL-21" value="Email" style="text;html=1;align=left;verticalAlign=middle;whiteSpace=wrap;rounded=0;" vertex="1" parent="70hL_4xym6O7oSysJ1IL-23">
          <mxGeometry x="370" y="110" width="60" height="20" as="geometry" />
        </mxCell>
        <mxCell id="70hL_4xym6O7oSysJ1IL-22" value="Password" style="text;html=1;align=left;verticalAlign=middle;whiteSpace=wrap;rounded=0;" vertex="1" parent="70hL_4xym6O7oSysJ1IL-23">
          <mxGeometry x="370" y="160" width="60" height="20" as="geometry" />
        </mxCell>
        <mxCell id="70hL_4xym6O7oSysJ1IL-24" value="" style="group" vertex="1" connectable="0" parent="1">
          <mxGeometry y="640" width="1080" height="600" as="geometry" />
        </mxCell>
        <mxCell id="70hL_4xym6O7oSysJ1IL-25" value="" style="rounded=0;whiteSpace=wrap;html=1;" vertex="1" parent="70hL_4xym6O7oSysJ1IL-24">
          <mxGeometry width="1080" height="600" as="geometry" />
        </mxCell>
        <mxCell id="70hL_4xym6O7oSysJ1IL-26" value="" style="rounded=0;whiteSpace=wrap;html=1;" vertex="1" parent="70hL_4xym6O7oSysJ1IL-24">
          <mxGeometry width="1080" height="50" as="geometry" />
        </mxCell>
        <mxCell id="70hL_4xym6O7oSysJ1IL-27" value="Home" style="text;html=1;align=center;verticalAlign=middle;whiteSpace=wrap;rounded=0;" vertex="1" parent="70hL_4xym6O7oSysJ1IL-24">
          <mxGeometry x="10" y="10" width="60" height="30" as="geometry" />
        </mxCell>
        <mxCell id="70hL_4xym6O7oSysJ1IL-28" value="About Us" style="text;html=1;align=center;verticalAlign=middle;whiteSpace=wrap;rounded=0;" vertex="1" parent="70hL_4xym6O7oSysJ1IL-24">
          <mxGeometry x="130" y="10" width="60" height="30" as="geometry" />
        </mxCell>
        <mxCell id="70hL_4xym6O7oSysJ1IL-29" value="Buy Products" style="text;html=1;align=center;verticalAlign=middle;whiteSpace=wrap;rounded=0;" vertex="1" parent="70hL_4xym6O7oSysJ1IL-24">
          <mxGeometry x="250" y="10" width="80" height="30" as="geometry" />
        </mxCell>
        <mxCell id="70hL_4xym6O7oSysJ1IL-30" value="Sell Products" style="text;html=1;align=center;verticalAlign=middle;whiteSpace=wrap;rounded=0;" vertex="1" parent="70hL_4xym6O7oSysJ1IL-24">
          <mxGeometry x="370" y="10" width="80" height="30" as="geometry" />
        </mxCell>
        <mxCell id="70hL_4xym6O7oSysJ1IL-31" value="History Items" style="text;html=1;align=center;verticalAlign=middle;whiteSpace=wrap;rounded=0;" vertex="1" parent="70hL_4xym6O7oSysJ1IL-24">
          <mxGeometry x="490" y="10" width="75.5" height="30" as="geometry" />
        </mxCell>
        <mxCell id="70hL_4xym6O7oSysJ1IL-32" value="Login" style="text;html=1;align=center;verticalAlign=middle;whiteSpace=wrap;rounded=0;" vertex="1" parent="70hL_4xym6O7oSysJ1IL-24">
          <mxGeometry x="610" y="10" width="60" height="30" as="geometry" />
        </mxCell>
        <mxCell id="70hL_4xym6O7oSysJ1IL-33" value="Register" style="text;html=1;align=center;verticalAlign=middle;whiteSpace=wrap;rounded=0;" vertex="1" parent="70hL_4xym6O7oSysJ1IL-24">
          <mxGeometry x="730" y="10" width="60" height="30" as="geometry" />
        </mxCell>
        <mxCell id="70hL_4xym6O7oSysJ1IL-34" value="Search.." style="strokeWidth=1;shadow=0;dashed=0;align=center;html=1;shape=mxgraph.mockup.text.textBox;fontColor=#CCCCCC;align=left;fontSize=15;spacingLeft=4;spacingTop=-3;whiteSpace=wrap;strokeColor=#666666;mainText=" vertex="1" parent="70hL_4xym6O7oSysJ1IL-24">
          <mxGeometry x="910" y="10" width="150" height="30" as="geometry" />
        </mxCell>
        <mxCell id="70hL_4xym6O7oSysJ1IL-35" value="&lt;b&gt;&lt;font style=&quot;font-size: 16px;&quot;&gt;Register&lt;/font&gt;&lt;/b&gt;" style="text;html=1;align=center;verticalAlign=middle;whiteSpace=wrap;rounded=0;" vertex="1" parent="70hL_4xym6O7oSysJ1IL-24">
          <mxGeometry x="450" y="70" width="60" height="30" as="geometry" />
        </mxCell>
        <mxCell id="70hL_4xym6O7oSysJ1IL-36" value="" style="rounded=1;whiteSpace=wrap;html=1;" vertex="1" parent="70hL_4xym6O7oSysJ1IL-24">
          <mxGeometry x="350" y="100" width="270" height="340" as="geometry" />
        </mxCell>
        <mxCell id="70hL_4xym6O7oSysJ1IL-37" value="&amp;nbsp;&lt;font style=&quot;color: rgb(179, 179, 179);&quot;&gt;Email&lt;/font&gt;" style="rounded=0;whiteSpace=wrap;html=1;align=left;" vertex="1" parent="70hL_4xym6O7oSysJ1IL-24">
          <mxGeometry x="370" y="130" width="220" height="20" as="geometry" />
        </mxCell>
        <mxCell id="70hL_4xym6O7oSysJ1IL-38" value="&amp;nbsp;First Name" style="rounded=0;whiteSpace=wrap;html=1;align=left;fontColor=#CCCCCC;" vertex="1" parent="70hL_4xym6O7oSysJ1IL-24">
          <mxGeometry x="370" y="180" width="220" height="20" as="geometry" />
        </mxCell>
        <mxCell id="70hL_4xym6O7oSysJ1IL-39" value="&lt;font style=&quot;color: rgb(255, 255, 255);&quot;&gt;Submit&lt;/font&gt;" style="rounded=1;whiteSpace=wrap;html=1;labelBackgroundColor=#00CC00;fillColor=#00CC00;glass=0;shadow=0;" vertex="1" parent="70hL_4xym6O7oSysJ1IL-24">
          <mxGeometry x="370" y="370" width="220" height="20" as="geometry" />
        </mxCell>
        <mxCell id="70hL_4xym6O7oSysJ1IL-40" value="Email:" style="text;html=1;align=left;verticalAlign=middle;whiteSpace=wrap;rounded=0;" vertex="1" parent="70hL_4xym6O7oSysJ1IL-24">
          <mxGeometry x="370" y="110" width="60" height="20" as="geometry" />
        </mxCell>
        <mxCell id="70hL_4xym6O7oSysJ1IL-41" value="First Name:" style="text;html=1;align=left;verticalAlign=middle;whiteSpace=wrap;rounded=0;" vertex="1" parent="70hL_4xym6O7oSysJ1IL-24">
          <mxGeometry x="370" y="160" width="70" height="20" as="geometry" />
        </mxCell>
        <mxCell id="70hL_4xym6O7oSysJ1IL-42" value="&amp;nbsp;Surname" style="rounded=0;whiteSpace=wrap;html=1;align=left;fontColor=#CCCCCC;" vertex="1" parent="70hL_4xym6O7oSysJ1IL-24">
          <mxGeometry x="370" y="230" width="220" height="20" as="geometry" />
        </mxCell>
        <mxCell id="70hL_4xym6O7oSysJ1IL-43" value="Surname:" style="text;html=1;align=left;verticalAlign=middle;whiteSpace=wrap;rounded=0;" vertex="1" parent="70hL_4xym6O7oSysJ1IL-24">
          <mxGeometry x="370" y="210" width="60" height="20" as="geometry" />
        </mxCell>
        <mxCell id="70hL_4xym6O7oSysJ1IL-46" value="dd/mm/yyyy" style="rounded=0;whiteSpace=wrap;html=1;align=left;fontColor=#CCCCCC;" vertex="1" parent="70hL_4xym6O7oSysJ1IL-24">
          <mxGeometry x="370" y="280" width="220" height="20" as="geometry" />
        </mxCell>
        <mxCell id="70hL_4xym6O7oSysJ1IL-47" value="Age:" style="text;html=1;align=left;verticalAlign=middle;whiteSpace=wrap;rounded=0;" vertex="1" parent="70hL_4xym6O7oSysJ1IL-24">
          <mxGeometry x="370" y="260" width="60" height="20" as="geometry" />
        </mxCell>
        <mxCell id="70hL_4xym6O7oSysJ1IL-48" value="&amp;nbsp;Password" style="rounded=0;whiteSpace=wrap;html=1;align=left;fontColor=#CCCCCC;" vertex="1" parent="70hL_4xym6O7oSysJ1IL-24">
          <mxGeometry x="370" y="330" width="220" height="20" as="geometry" />
        </mxCell>
        <mxCell id="70hL_4xym6O7oSysJ1IL-49" value="Password:" style="text;html=1;align=left;verticalAlign=middle;whiteSpace=wrap;rounded=0;" vertex="1" parent="70hL_4xym6O7oSysJ1IL-24">
          <mxGeometry x="370" y="310" width="60" height="20" as="geometry" />
        </mxCell>
        <mxCell id="70hL_4xym6O7oSysJ1IL-50" value="" style="sketch=0;pointerEvents=1;shadow=0;dashed=0;html=1;strokeColor=none;fillColor=#505050;labelPosition=center;verticalLabelPosition=bottom;verticalAlign=top;outlineConnect=0;align=center;shape=mxgraph.office.concepts.calendar;" vertex="1" parent="70hL_4xym6O7oSysJ1IL-24">
          <mxGeometry x="570" y="285" width="10" height="10" as="geometry" />
        </mxCell>
        <mxCell id="70hL_4xym6O7oSysJ1IL-53" value="" style="group" vertex="1" connectable="0" parent="1">
          <mxGeometry y="1280" width="1080" height="600" as="geometry" />
        </mxCell>
        <mxCell id="70hL_4xym6O7oSysJ1IL-54" value="" style="rounded=0;whiteSpace=wrap;html=1;" vertex="1" parent="70hL_4xym6O7oSysJ1IL-53">
          <mxGeometry width="1080" height="600" as="geometry" />
        </mxCell>
        <mxCell id="70hL_4xym6O7oSysJ1IL-55" value="" style="rounded=0;whiteSpace=wrap;html=1;" vertex="1" parent="70hL_4xym6O7oSysJ1IL-53">
          <mxGeometry width="1080" height="50" as="geometry" />
        </mxCell>
        <mxCell id="70hL_4xym6O7oSysJ1IL-56" value="Home" style="text;html=1;align=center;verticalAlign=middle;whiteSpace=wrap;rounded=0;" vertex="1" parent="70hL_4xym6O7oSysJ1IL-53">
          <mxGeometry x="10" y="10" width="60" height="30" as="geometry" />
        </mxCell>
        <mxCell id="70hL_4xym6O7oSysJ1IL-57" value="About Us" style="text;html=1;align=center;verticalAlign=middle;whiteSpace=wrap;rounded=0;" vertex="1" parent="70hL_4xym6O7oSysJ1IL-53">
          <mxGeometry x="130" y="10" width="60" height="30" as="geometry" />
        </mxCell>
        <mxCell id="70hL_4xym6O7oSysJ1IL-58" value="Buy Products" style="text;html=1;align=center;verticalAlign=middle;whiteSpace=wrap;rounded=0;" vertex="1" parent="70hL_4xym6O7oSysJ1IL-53">
          <mxGeometry x="250" y="10" width="80" height="30" as="geometry" />
        </mxCell>
        <mxCell id="70hL_4xym6O7oSysJ1IL-59" value="Sell Products" style="text;html=1;align=center;verticalAlign=middle;whiteSpace=wrap;rounded=0;" vertex="1" parent="70hL_4xym6O7oSysJ1IL-53">
          <mxGeometry x="370" y="10" width="80" height="30" as="geometry" />
        </mxCell>
        <mxCell id="70hL_4xym6O7oSysJ1IL-60" value="History Items" style="text;html=1;align=center;verticalAlign=middle;whiteSpace=wrap;rounded=0;" vertex="1" parent="70hL_4xym6O7oSysJ1IL-53">
          <mxGeometry x="490" y="10" width="75.5" height="30" as="geometry" />
        </mxCell>
        <mxCell id="70hL_4xym6O7oSysJ1IL-61" value="Login" style="text;html=1;align=center;verticalAlign=middle;whiteSpace=wrap;rounded=0;" vertex="1" parent="70hL_4xym6O7oSysJ1IL-53">
          <mxGeometry x="610" y="10" width="60" height="30" as="geometry" />
        </mxCell>
        <mxCell id="70hL_4xym6O7oSysJ1IL-62" value="Register" style="text;html=1;align=center;verticalAlign=middle;whiteSpace=wrap;rounded=0;" vertex="1" parent="70hL_4xym6O7oSysJ1IL-53">
          <mxGeometry x="730" y="10" width="60" height="30" as="geometry" />
        </mxCell>
        <mxCell id="70hL_4xym6O7oSysJ1IL-63" value="Search.." style="strokeWidth=1;shadow=0;dashed=0;align=center;html=1;shape=mxgraph.mockup.text.textBox;fontColor=#CCCCCC;align=left;fontSize=15;spacingLeft=4;spacingTop=-3;whiteSpace=wrap;strokeColor=#666666;mainText=" vertex="1" parent="70hL_4xym6O7oSysJ1IL-53">
          <mxGeometry x="910" y="10" width="150" height="30" as="geometry" />
        </mxCell>
        <mxCell id="70hL_4xym6O7oSysJ1IL-64" value="&lt;b&gt;&lt;font style=&quot;font-size: 16px;&quot;&gt;History of Purchased Items&lt;/font&gt;&lt;/b&gt;" style="text;html=1;align=center;verticalAlign=middle;whiteSpace=wrap;rounded=0;" vertex="1" parent="70hL_4xym6O7oSysJ1IL-53">
          <mxGeometry x="370" y="70" width="220" height="30" as="geometry" />
        </mxCell>
        <mxCell id="70hL_4xym6O7oSysJ1IL-65" value="" style="rounded=1;whiteSpace=wrap;html=1;rotation=0;" vertex="1" parent="70hL_4xym6O7oSysJ1IL-53">
          <mxGeometry x="345" y="100" width="270" height="80" as="geometry" />
        </mxCell>
        <mxCell id="70hL_4xym6O7oSysJ1IL-70" value="No Items purchased yet" style="text;html=1;align=left;verticalAlign=middle;whiteSpace=wrap;rounded=0;" vertex="1" parent="70hL_4xym6O7oSysJ1IL-53">
          <mxGeometry x="408.75" y="130" width="137.5" height="20" as="geometry" />
        </mxCell>
        <mxCell id="70hL_4xym6O7oSysJ1IL-78" style="edgeStyle=orthogonalEdgeStyle;rounded=0;orthogonalLoop=1;jettySize=auto;html=1;exitX=0.5;exitY=1;exitDx=0;exitDy=0;" edge="1" parent="70hL_4xym6O7oSysJ1IL-53" source="70hL_4xym6O7oSysJ1IL-65" target="70hL_4xym6O7oSysJ1IL-65">
          <mxGeometry relative="1" as="geometry" />
        </mxCell>
      </root>
    </mxGraphModel>
  </diagram>
</mxfile>
